<?xml version="1.0" encoding="utf-8"?>
<!-- Generator: Adobe Illustrator 18.1.1, SVG Export Plug-In . SVG Version: 6.00 Build 0)  -->
<svg version="1.1" id="Layer_1" xmlns="http://www.w3.org/2000/svg" xmlns:xlink="http://www.w3.org/1999/xlink" x="0px" y="0px"
	 viewBox="-448 -508.1 1024 1024" enable-background="new -448 -508.1 1024 1024" xml:space="preserve"
   width="150mm" height="150mm">
<filter  id="gb">
	<feGaussianBlur  stdDeviation="3"></feGaussianBlur>
</filter>
<g id="disc-black" filter="url(#gb)">
	<ellipse fill="#353535" cx="64" cy="9.9" rx="501" ry="501.8"/>
</g>
<ellipse id="disc-grey" fill="#E5E5E5" cx="64" cy="2" rx="501" ry="501.8"/>
<g id="mercury">
	<g filter="url(#gb)">
		<g id="hg_3_">
			<path fill="#1B1B1B" d="M385.5,201.4C521.9-26.8,356.8-396.9,54.4-359.4C-219.2-325.1-223.2-36.3,17.7,32.3
				c208.2,59.8,43.1,192.3,47.9,280.8C70.4,401.6,246.7,434.3,385.5,201.4"/>
			<ellipse fill="#1B1B1B" cx="-113.9" cy="231.7" rx="118.9" ry="118.9"/>
			<ellipse fill="#1B1B1B" cx="-249.5" cy="-20.4" rx="77.4" ry="78.2"/>
		</g>
	</g>
	<g transform="translate(0.559,-0.997)">
		<g id="hg_1_">
			<path fill="#BFBFBF" d="M395,185.7C531.4-42.5,366.2-412.7,63.9-375.2C-209.7-341.7-214.5-52.1,26.4,16.5
				c208.2,59.8,43.1,192.3,47.9,280.8C79,385.9,255.3,417.8,395,185.7"/>
			<ellipse fill="#BFBFBF" cx="-105.2" cy="215.2" rx="118.9" ry="118.9"/>
			<ellipse fill="#BFBFBF" cx="-240.9" cy="-36.9" rx="77.4" ry="78.2"/>
		</g>
	</g>
	<path d="M105.5,339.4c-8-13.6,4-28.7,17.6-27.1c20.7,1.6,65.4,0,101.3-20.7c88.6-51.1,225.8-294.4,157.2-448.3
		c-31.1-68.6-45.5-88.6-77.4-122.1c-7.2-7.2-3.2-6.4,0.8-4c16.8,8.8,47.1,43.9,78.2,101.3c51.9,96.5,49.5,210.6,30.3,282.4
		c-13.6,50.3-59.8,162.7-128.4,212.2C217.1,361.8,136.6,389.7,105.5,339.4 M44,22.7C-2.2,9.1-62.9-10.8-97.2-56.3
		c-25.5-33.5-38.3-70.2-42.3-90.9c-0.8-7.2-2.4-13.6,0-15.2c0.8-0.8,19.1,40.7,46.3,75c27.1,34.3,64.6,55,96.5,62.2
		c27.9,6.4,86.2,20.7,106.1,37.5c19.9,17.6,21.5,55,15.2,59C117.4,75.4,103.1,41.1,44,22.7 M-179.3,309.1
		C-86.8,395.3,52,277.2-9.4,172.7c-7.2-12-16-20.7-12.8-12c19.1,59.8,1.6,106.9-31.9,131.6c-32.7,23.9-78.2,27.9-114.9,8.8
		C-180.1,296.3-184.1,304.3-179.3,309.1 M-287,29.9c0.8,5.6,8,12.8,19.9,16c10.4,3.2,35.9,9.6,69.4-11.2
		c33.5-21.5,37.5-78.2,22.3-94.9c-4.8-8.8-11.2-14.4-5.6-0.8c12,34.3-12,66.2-32.7,80.6c-20.7,15.2-47.1,8-57.4,4.8
		C-282.3,20.3-287.8,24.3-287,29.9"/>
	<path fill="#FFFFFF" d="M139.8,345.8c-0.8,10.4,11.2,12.8,27.9,10.4c20.7-3.2,39.1-5.6,63-17.6c32.7-16.8,66.2-40.7,90.9-72.6
		c72.6-95.7,98.9-208.2,94.9-225c-1.6,13.6-19.1,83.8-59,147.6c-51.9,81.4-89.3,125.2-175.5,146
		C157.3,340.2,140.6,331.4,139.8,345.8 M-51.7-26C-42.1-17.2-21.4-6,17.7,6.7c47.9,16,71,29.5,81.4,35.9
		c10.4,7.2,16.8,22.3,17.6,8.8c0.8-13.6-8-25.5-26.3-31.9c-12.8-4-34.3-14.4-55-18.3c-13.6-2.4-35.1-8-53.4-13.6
		C-28.6-15.6-38.9-21.2-51.7-26 M-107.5,326.6c12-2.4,79.8-19.9,95.7-76.6c4.8-17.6,5.6-14.4,4.8-4.8c-7.2,48.7-52.7,84.6-91.7,86.2
		C-106.7,332.2-117.1,329-107.5,326.6 M-244,37.1c3.2-2.4,18.3-1.6,32.7-9.6c14.4-8,31.1-23.9,33.5-47.9c1.6-13.6,2.4-10.4,3.2-3.2
		c-2.4,39.1-38.3,61.4-59,63.8C-238.4,41.8-248.7,41.8-244,37.1"/>
	<path fill="#999999" d="M371.9,44.2c58.2-168.3-63.8-422.8-309.5-392.5C-160.2-320.3-163.4-85,32.1-29.2
		C253.8,4.4,120.6,172.7,101.5,258C84.7,333.8,281,346.6,371.9,44.2 M-184.1,285.2c13.6,0,22.3,2.4,36.7,12c27.9,12,79,4,102.9-27.1
		s24.7-74.2,15.2-100.5c-22.3-63.8-115.7-63-158-9.6C-232.8,219-198.5,284.4-184.1,285.2 M-308.6-10.8c2.4,8.8,9.6,21.5,24.7,23.9
		c19.9,3.2,23.9,12,47.9,7.2s41.5-23.9,48.7-45.5c8-29.5-4-45.5-22.3-59s-59-12-83.8,10.4C-311-58.7-315.8-32.3-308.6-10.8"/>
	<path fill="#F3F3F3" d="M219.5,175.9c-59.8-7.2-146.8,129.2-65.4,113.3c81.4-16-81.4,16,0,0c39.1-5.6,71.8-19.9,100.5-53.4
		c38.3-43.9,94.9-137.2,110.9-197.8c13.6-51.1,7.2-130.8-7.2-55.8C344.8,57.8,280.2,183.1,219.5,175.9 M-94,289.2
		c15.2-4,63-23.1,54.2-92.5c-4.8-35.1-23.9,43.9-59,55C-152.2,270-145.8,303.5-94,289.2 M-230.4,9.1c18.3-4.8,42.3-29.5,30.3-48.7
		c-14.4-23.1-55.8-3.2-56.6,22.3C-258.3,9.1-249.5,13.9-230.4,9.1"/>
</g>
</svg>
