<svg version="1.1" id="Layer_1" xmlns="http://www.w3.org/2000/svg" xmlns:xlink="http://www.w3.org/1999/xlink" x="0px" y="0px"
	 viewBox="-56 2 14 14" enable-background="new -56 2 14 14" xml:space="preserve">
<path fill="#3c8746" d="M-51.1,2h4.2c2.7,0,4.9,2.2,4.9,4.9v4.2c0,2.7-2.2,4.9-4.9,4.9h-4.2c-2.7,0-4.9-2.2-4.9-4.9V6.9
	C-56,4.2-53.8,2-51.1,2z"/>
<g>
	<path fill="#FFFFFF" d="M-50.8,3L-50.8,3c-0.4,2-0.9,3.5-3.9,3.8v0.1c3,0.3,3.5,1.9,3.8,3.8h0.1c0.3-2,0.8-3.5,3.8-3.8V6.8
		C-49.9,6.5-50.5,4.9-50.8,3z"/>
	<path fill="#FFFFFF" d="M-45.8,8L-45.8,8c-0.2,1.3-0.6,2.3-2.5,2.5v0.1c1.9,0.2,2.3,1.2,2.5,2.5h0.1c0.2-1.3,0.5-2.3,2.5-2.5v-0.1
		C-45.2,10.3-45.6,9.3-45.8,8z"/>
	<path fill="#FFFFFF" d="M-49.8,11.5L-49.8,11.5c-0.2,0.9-0.4,1.6-1.8,1.8v0c1.4,0.1,1.6,0.9,1.8,1.8h0c0.1-0.9,0.4-1.6,1.8-1.8v0
		C-49.4,13.1-49.6,12.4-49.8,11.5z"/>
</g>
</svg>
